<svg xmlns="http://www.w3.org/2000/svg" width="507.68" height="512" viewBox="0 0 507.68 512">
  <g id="google" transform="translate(-2.16)">
    <g id="Group_12" data-name="Group 12">
      <path id="Path_11" data-name="Path 11" d="M430.975,512H393.526a14.4,14.4,0,0,1,0-28.8h37.449a50.122,50.122,0,0,0,50.064-50.064V83.186a50.122,50.122,0,0,0-50.064-50.064H214.718a14.4,14.4,0,1,1,0-28.8H430.975A78.955,78.955,0,0,1,509.84,83.185V433.134A78.954,78.954,0,0,1,430.975,512Z" fill="#fff"/>
      <path id="Path_12" data-name="Path 12" d="M289.409,507.68H81.025A78.955,78.955,0,0,1,2.16,428.815V78.865A78.954,78.954,0,0,1,81.025,0h32.408a14.4,14.4,0,1,1,0,28.8H81.025A50.122,50.122,0,0,0,30.961,78.866V428.815a50.122,50.122,0,0,0,50.064,50.064H289.41a14.4,14.4,0,1,1,0,28.8Z" fill="#fff"/>
    </g>
    <path id="Path_13" data-name="Path 13" d="M207.074,373.74a117.741,117.741,0,1,1,0-235.482c26.64,0,51.036,8.05,70.553,23.278a12.285,12.285,0,0,1,3.738,14.406,12.665,12.665,0,0,1-2.835,4.137l-18.554,18.554a12.952,12.952,0,0,1-8.354,3.914,12.127,12.127,0,0,1-7.959-2.382c-9.965-7.4-22.617-11.312-36.589-11.312-35.548,0-65.579,30.745-65.579,67.137,0,36.528,29.419,66.245,65.579,66.245,46.525,0,56.9-37.061,56.9-37.061H237.277a12.327,12.327,0,0,1-12.327-12.327V255.2a12.325,12.325,0,0,1,12.325-12.325h56.843a24.924,24.924,0,0,1,24.842,24.86c0,37.585-17.533,64.648-37.752,81.285C261.557,365.194,241.6,373.74,207.074,373.74Z" fill="#fff"/>
    <g id="Group_13" data-name="Group 13">
      <path id="Path_14" data-name="Path 14" d="M207.073,388.141c-72.867,0-132.148-59.283-132.148-132.15s59.281-132.134,132.148-132.134c29.881,0,57.342,9.1,79.413,26.326a26.706,26.706,0,0,1,2.231,40.077L270.16,208.817a27.287,27.287,0,0,1-17.753,8.11,26.41,26.41,0,0,1-17.328-5.2c-7.465-5.543-17.148-8.473-28.005-8.473-27.741,0-51.178,24.151-51.178,52.736s22.957,51.845,51.178,51.845c13.161,0,22.482-3.672,29-8.286a26.759,26.759,0,0,1-25.528-26.7V255.2a26.757,26.757,0,0,1,26.727-26.727H294.12a39.3,39.3,0,0,1,39.243,39.26c0,49.614-26.943,79.19-43,92.4C266.191,380.029,242.062,388.141,207.073,388.141Zm0-235.481a103.341,103.341,0,1,0,0,206.681c32.421,0,48.9-8.2,64.985-21.438,12.14-9.988,32.5-32.384,32.5-70.165a10.463,10.463,0,0,0-10.442-10.459H239.35v13.5h24.621a14.4,14.4,0,0,1,13.868,18.281c-4.605,16.457-25.322,47.581-70.766,47.581-44.1,0-79.979-36.178-79.979-80.646,0-44.2,36.626-81.537,79.979-81.537,16.4,0,31.452,4.509,43.66,13.058l16.1-16.094C250.191,159.138,229.588,152.66,207.073,152.66Z" fill="#fff"/>
      <path id="Path_15" data-name="Path 15" d="M392.072,301a14.4,14.4,0,0,1-14.4-14.4V225.4a14.4,14.4,0,1,1,28.8,0v61.2A14.4,14.4,0,0,1,392.072,301Z" fill="#fff"/>
      <path id="Path_16" data-name="Path 16" d="M422.673,270.4h-61.2a14.4,14.4,0,1,1,0-28.8h61.2a14.4,14.4,0,0,1,0,28.8Z" fill="#fff"/>
    </g>
  </g>
</svg>
