<svg xmlns="http://www.w3.org/2000/svg" width="512.001" height="512" viewBox="0 0 512.001 512">
  <g id="insta" transform="translate(0 -0.001)">
    <g id="Group_14" data-name="Group 14">
      <path id="Path_17" data-name="Path 17" d="M432.464,512H394.7a14.523,14.523,0,0,1,0-29.046h37.767a50.548,50.548,0,0,0,50.49-50.49V79.537a50.548,50.548,0,0,0-50.49-50.49h-218.1a14.523,14.523,0,0,1,0-29.046h218.1A79.626,79.626,0,0,1,512,79.537V432.465A79.627,79.627,0,0,1,432.464,512Z" fill="#fff"/>
      <path id="Path_18" data-name="Path 18" d="M289.694,512H79.536A79.625,79.625,0,0,1,0,432.465V79.537A79.625,79.625,0,0,1,79.536,0H112.22a14.523,14.523,0,1,1,0,29.046H79.536a50.548,50.548,0,0,0-50.49,50.49V432.465a50.548,50.548,0,0,0,50.49,50.49H289.694a14.523,14.523,0,1,1,0,29.046Z" fill="#fff"/>
    </g>
    <path id="Path_19" data-name="Path 19" d="M359.6,102.056H152.4A50.347,50.347,0,0,0,102.054,152.4V359.6A50.347,50.347,0,0,0,152.4,409.947H359.6A50.347,50.347,0,0,0,409.945,359.6V152.4A50.345,50.345,0,0,0,359.6,102.056ZM256,330.781A74.78,74.78,0,1,1,330.781,256,74.78,74.78,0,0,1,256,330.781Z" fill="#fff"/>
    <g id="Group_15" data-name="Group 15">
      <path id="Path_20" data-name="Path 20" d="M359.6,424.47H152.4a64.943,64.943,0,0,1-64.87-64.87V152.4a64.943,64.943,0,0,1,64.87-64.87H359.6a64.943,64.943,0,0,1,64.87,64.87V359.6A64.945,64.945,0,0,1,359.6,424.47ZM152.4,116.579A35.864,35.864,0,0,0,116.579,152.4V359.6A35.864,35.864,0,0,0,152.4,395.424H359.6A35.864,35.864,0,0,0,395.423,359.6V152.4A35.864,35.864,0,0,0,359.6,116.578H152.4ZM256,345.3A89.3,89.3,0,1,1,345.3,256,89.4,89.4,0,0,1,256,345.3Zm0-149.56A60.257,60.257,0,1,0,316.258,256,60.324,60.324,0,0,0,256,195.744Z" fill="#fff"/>
      <circle id="Ellipse_15" data-name="Ellipse 15" cx="20.449" cy="20.449" r="20.449" transform="translate(325.957 144.055)" fill="#f2efe7"/>
    </g>
  </g>
</svg>
