<svg id="facebook" xmlns="http://www.w3.org/2000/svg" width="512" height="512" viewBox="0 0 512 512">
  <path id="Path_7" data-name="Path 7" d="M365.075,307.969h0a39.331,39.331,0,0,0-39.33-38.95H289.693V214.342A27.643,27.643,0,0,1,317.336,186.7h13.209a35.37,35.37,0,0,0,35.37-35.37h0a35.37,35.37,0,0,0-35.37-35.37H298.02a86.991,86.991,0,0,0-86.991,86.991v66.067H185.416a39.332,39.332,0,0,0-39.332,39.332h0a39.332,39.332,0,0,0,39.332,39.332h25.613V497.475h78.665V347.682h36.052A39.331,39.331,0,0,0,365.075,307.969Z" fill="#fff"/>
  <g id="Group_11" data-name="Group 11">
    <path id="Path_8" data-name="Path 8" d="M289.693,512H211.028A14.523,14.523,0,0,1,196.5,497.477V362.206h-11.09a53.856,53.856,0,0,1,0-107.711H196.5V202.951A101.629,101.629,0,0,1,298.019,101.437h32.525a49.893,49.893,0,1,1,0,99.786H317.335a13.135,13.135,0,0,0-13.12,13.12V254.5h21.529A54.026,54.026,0,0,1,379.6,307.829a53.855,53.855,0,0,1-53.854,54.377H304.215V497.477A14.521,14.521,0,0,1,289.693,512Zm-64.14-29.046h49.618V347.682a14.523,14.523,0,0,1,14.523-14.523h36.052a24.809,24.809,0,0,0,24.807-25.05,24.887,24.887,0,0,0-24.808-24.569H289.693a14.523,14.523,0,0,1-14.523-14.523V214.34a42.214,42.214,0,0,1,42.166-42.166h13.209a20.847,20.847,0,0,0,0-41.694H298.02a72.55,72.55,0,0,0-72.468,72.468v66.067a14.523,14.523,0,0,1-14.523,14.523H185.416a24.809,24.809,0,0,0,0,49.618h25.613a14.523,14.523,0,0,1,14.523,14.523V482.954Z" fill="#fff"/>
    <path id="Path_9" data-name="Path 9" d="M432.464,512H394.7a14.523,14.523,0,0,1,0-29.046h37.766a50.548,50.548,0,0,0,50.49-50.49V79.536a50.548,50.548,0,0,0-50.49-50.49h-218.1a14.523,14.523,0,0,1,0-29.046h218.1A79.625,79.625,0,0,1,512,79.536V432.464A79.625,79.625,0,0,1,432.464,512Z" fill="#fff"/>
    <path id="Path_10" data-name="Path 10" d="M289.693,512H79.536A79.625,79.625,0,0,1,0,432.464V79.536A79.625,79.625,0,0,1,79.536,0H112.22a14.523,14.523,0,1,1,0,29.046H79.536a50.548,50.548,0,0,0-50.49,50.49V432.464a50.548,50.548,0,0,0,50.49,50.49H289.693a14.523,14.523,0,1,1,0,29.046Z" fill="#fff"/>
  </g>
</svg>
