<svg id="twitter" xmlns="http://www.w3.org/2000/svg" width="512" height="512" viewBox="0 0 512 512">
  <g id="Group_16" data-name="Group 16">
    <path id="Path_21" data-name="Path 21" d="M432.464,512H394.7a14.523,14.523,0,0,1,0-29.046h37.766a50.548,50.548,0,0,0,50.49-50.49V79.536a50.548,50.548,0,0,0-50.49-50.49h-218.1a14.523,14.523,0,0,1,0-29.046h218.1A79.625,79.625,0,0,1,512,79.536V432.464A79.625,79.625,0,0,1,432.464,512Z" fill="#fff"/>
    <path id="Path_22" data-name="Path 22" d="M289.693,512H79.536A79.625,79.625,0,0,1,0,432.464V79.536A79.625,79.625,0,0,1,79.536,0H112.22a14.523,14.523,0,1,1,0,29.046H79.536a50.548,50.548,0,0,0-50.49,50.49V432.464a50.548,50.548,0,0,0,50.49,50.49H289.693a14.523,14.523,0,1,1,0,29.046Z" fill="#fff"/>
  </g>
  <path id="Path_23" data-name="Path 23" d="M402.448,169.183l-37.573-14.314c-7.963-17.818-20.947-30.558-38.881-34.726-52.475-12.195-80.156,37.033-74.518,72.059a64.1,64.1,0,0,0,3.956,14.108c-4.7.562-73.226,7.687-132.133-37.7a7.917,7.917,0,0,0-12.549,4.822c-3.234,16.051-2.4,45.263,35.436,69.081a67.784,67.784,0,0,1-16.841-.574,7.941,7.941,0,0,0-8.8,10.435c5.3,15.384,19.509,38.642,57.205,41.3,0,0-5.482,3.15-15.422,4.758a7.909,7.909,0,0,0-4.9,12.759c8.991,11.1,26.9,25.645,57.978,23.09,0,0,2.216,25.736-88.895,41.628,0,0,45.784,17.856,100.7,17.856,152.343,0,152.417-127.349,146.611-201.278Z" fill="#fff"/>
  <path id="Path_24" data-name="Path 24" d="M227.216,408.279c-29.812,0-56.906-5.079-74.386-9.34-9.9-2.412-17.861-4.832-22.8-6.435-10.017-3.256-17.255-5.607-18-15.505a14.522,14.522,0,0,1,11.986-15.4c29.363-5.121,47.662-11.071,59.013-16.251a76.24,76.24,0,0,1-36.886-25.018,22.469,22.469,0,0,1-3.811-21.24C120.8,288,111.08,269.487,106.813,257.1a22.422,22.422,0,0,1,6.2-24.018c-20.713-24.814-18.9-50.662-16.5-62.524a22.591,22.591,0,0,1,22.064-18.1,22.07,22.07,0,0,1,13.586,4.645c38.128,29.379,80.695,34.931,104.678,35.384-2.892-22.019,4.393-46.243,19.265-63.7a69.987,69.987,0,0,1,54.014-25.063A84.892,84.892,0,0,1,329.278,106c19.847,4.613,35.7,17.474,46.139,37.348l32.2,12.268a14.522,14.522,0,0,1,4,24.835l-22.751,18.517c3.686,54.344,1.386,120.087-39.67,164.5C321.7,393.2,280.66,408.279,227.216,408.279Zm-42.023-32.471a271.729,271.729,0,0,0,42.024,3.425c45.014,0,78.878-11.941,100.651-35.492,35.351-38.238,35.394-100.316,31.482-150.126a14.521,14.521,0,0,1,5.311-12.4l9.11-7.416L359.7,168.439a14.528,14.528,0,0,1-8.089-7.646c-6.547-14.651-16.275-23.568-28.91-26.505a55.838,55.838,0,0,0-12.586-1.521,40.913,40.913,0,0,0-31.9,14.854c-9.813,11.52-14.681,28.111-12.4,42.272a49.7,49.7,0,0,0,3.059,10.914,14.523,14.523,0,0,1-11.716,19.921,149.184,149.184,0,0,1-16.934.834c-25.045,0-71.965-4.671-116.114-34.471.548,13.123,7.266,28.933,29.812,43.125a14.522,14.522,0,0,1-6,26.709,67.752,67.752,0,0,1-7.6.378c-.534,0-1.067,0-1.6-.015,7.9,13.22,21.332,20.571,40.058,21.889a14.523,14.523,0,0,1,6.215,27.08,48.143,48.143,0,0,1-8.333,3.574c7.177,5.571,17.435,10.211,31.684,10.211,1.91,0,3.889-.083,5.88-.247a14.534,14.534,0,0,1,15.66,13.228c.289,3.355,0,15.258-15.839,27.568Q203.216,369.006,185.193,375.808Z" fill="#fff"/>
</svg>
